<?xml version="1.0" encoding="UTF-8"?>
<svg id="Layer_1" data-name="Layer 1" xmlns="http://www.w3.org/2000/svg" viewBox="0 0 119.01 251.96">
  <defs>
    <style>
      .cls-1 {
        stroke: #000;
        stroke-miterlimit: 10;
      }
    </style>
  </defs>
  <path class="cls-1" d="m13.51,22.32c5.44.12,13.27.89,22,4,28.15,10.04,41.3,35.82,47,47,0,0,24.18,51.91,0,111-6.46,15.78-16,15-30,28-16.43,15.25-20.95,33.91-17,38,4.66,4.82,26.55-6.31,42-20,59.89-60.38,55.78-159.27-23-211C46.22,14.59,6.21-3.53.51,1.32c.11,2.32.65,6.74,3.34,11.44,3.18,5.55,7.61,8.4,9.66,9.56Z"/>
</svg>